<svg xmlns="http://www.w3.org/2000/svg" xmlns:xlink="http://www.w3.org/1999/xlink" width="500" zoomAndPan="magnify" viewBox="0 0 375 225" height="300" preserveAspectRatio="xMidYMid meet" version="1.0"><defs><g/><clipPath id="efcda31f38"><path d="M 96 31 L 111 31 L 111 66 L 96 66 Z M 96 31 " clip-rule="nonzero"/></clipPath><clipPath id="c6fdccfeb2"><path d="M 141.636719 8.945312 L 173.636719 57.019531 L 119.316406 93.171875 L 87.320312 45.097656 Z M 141.636719 8.945312 " clip-rule="nonzero"/></clipPath><clipPath id="76daa1cd7c"><path d="M 141.636719 8.945312 L 173.636719 57.019531 L 119.316406 93.171875 L 87.320312 45.097656 Z M 141.636719 8.945312 " clip-rule="nonzero"/></clipPath><clipPath id="99d6dca8db"><path d="M 109.957031 30.03125 L 124.863281 52.433594 L 102.398438 67.382812 L 87.492188 44.980469 Z M 109.957031 30.03125 " clip-rule="nonzero"/></clipPath><clipPath id="b3ade9d91c"><path d="M 108 32 L 122 32 L 122 68 L 108 68 Z M 108 32 " clip-rule="nonzero"/></clipPath><clipPath id="d8f7d1b915"><path d="M 141.636719 8.945312 L 173.636719 57.019531 L 119.316406 93.171875 L 87.320312 45.097656 Z M 141.636719 8.945312 " clip-rule="nonzero"/></clipPath><clipPath id="1d18afff26"><path d="M 141.636719 8.945312 L 173.636719 57.019531 L 119.316406 93.171875 L 87.320312 45.097656 Z M 141.636719 8.945312 " clip-rule="nonzero"/></clipPath><clipPath id="072e5744c6"><path d="M 127 22 L 153 22 L 153 42 L 127 42 Z M 127 22 " clip-rule="nonzero"/></clipPath><clipPath id="cd5aee4981"><path d="M 141.636719 8.945312 L 173.636719 57.019531 L 119.316406 93.171875 L 87.320312 45.097656 Z M 141.636719 8.945312 " clip-rule="nonzero"/></clipPath><clipPath id="7b32d5acb5"><path d="M 141.636719 8.945312 L 173.636719 57.019531 L 119.316406 93.171875 L 87.320312 45.097656 Z M 141.636719 8.945312 " clip-rule="nonzero"/></clipPath><clipPath id="e355f43d00"><path d="M 130 27 L 155 27 L 155 47 L 130 47 Z M 130 27 " clip-rule="nonzero"/></clipPath><clipPath id="4795ff0877"><path d="M 141.636719 8.945312 L 173.636719 57.019531 L 119.316406 93.171875 L 87.320312 45.097656 Z M 141.636719 8.945312 " clip-rule="nonzero"/></clipPath><clipPath id="d315064f85"><path d="M 141.636719 8.945312 L 173.636719 57.019531 L 119.316406 93.171875 L 87.320312 45.097656 Z M 141.636719 8.945312 " clip-rule="nonzero"/></clipPath><clipPath id="e3bfeadba3"><path d="M 125 51 L 157 51 L 157 64 L 125 64 Z M 125 51 " clip-rule="nonzero"/></clipPath><clipPath id="b26596dce4"><path d="M 141.636719 8.945312 L 173.636719 57.019531 L 119.316406 93.171875 L 87.320312 45.097656 Z M 141.636719 8.945312 " clip-rule="nonzero"/></clipPath><clipPath id="e2e251780d"><path d="M 141.636719 8.945312 L 173.636719 57.019531 L 119.316406 93.171875 L 87.320312 45.097656 Z M 141.636719 8.945312 " clip-rule="nonzero"/></clipPath><clipPath id="4d469c1627"><path d="M 124 62 L 156 62 L 156 74 L 124 74 Z M 124 62 " clip-rule="nonzero"/></clipPath><clipPath id="653c874843"><path d="M 141.636719 8.945312 L 173.636719 57.019531 L 119.316406 93.171875 L 87.320312 45.097656 Z M 141.636719 8.945312 " clip-rule="nonzero"/></clipPath><clipPath id="3d0a335224"><path d="M 141.636719 8.945312 L 173.636719 57.019531 L 119.316406 93.171875 L 87.320312 45.097656 Z M 141.636719 8.945312 " clip-rule="nonzero"/></clipPath><clipPath id="a2f22d5d09"><path d="M 143.902344 49.613281 L 156.597656 68.691406 L 136.234375 82.246094 L 123.539062 63.167969 Z M 143.902344 49.613281 " clip-rule="nonzero"/></clipPath></defs><g clip-path="url(#efcda31f38)"><g clip-path="url(#c6fdccfeb2)"><g clip-path="url(#76daa1cd7c)"><g clip-path="url(#99d6dca8db)"><path fill="#88584e" d="M 108.171875 59.167969 C 108.679688 56.21875 107.796875 53.4375 106.742188 50.726562 C 105.847656 48.429688 105.148438 46.09375 105.28125 43.601562 C 105.523438 39 107.910156 34.933594 110.875 31.492188 C 104.949219 31.117188 98.910156 37.734375 97.070312 46.90625 C 95.4375 55.027344 97.617188 62.566406 102.03125 65.535156 C 103.269531 66.371094 104.957031 65.980469 105.765625 64.722656 C 106.863281 63.019531 107.8125 61.242188 108.171875 59.167969 " fill-opacity="1" fill-rule="nonzero"/></g></g></g></g><g clip-path="url(#b3ade9d91c)"><g clip-path="url(#d8f7d1b915)"><g clip-path="url(#1d18afff26)"><path fill="#88584e" d="M 116.617188 33.589844 C 115.472656 32.636719 113.757812 32.867188 112.824219 34.03125 C 111.507812 35.683594 110.367188 37.46875 109.554688 39.433594 C 109.445312 39.691406 109.347656 39.953125 109.253906 40.214844 C 109.242188 40.257812 109.175781 40.449219 109.160156 40.488281 C 109.125 40.605469 109.089844 40.722656 109.054688 40.839844 C 108.914062 41.320312 108.796875 41.804688 108.707031 42.296875 C 108.625 42.757812 108.574219 43.21875 108.527344 43.679688 C 108.527344 43.683594 108.527344 43.683594 108.527344 43.683594 C 108.527344 43.726562 108.523438 43.765625 108.523438 43.808594 C 108.515625 43.914062 108.515625 44.019531 108.511719 44.125 C 108.507812 44.304688 108.507812 44.488281 108.511719 44.671875 C 108.542969 45.996094 108.757812 47.097656 109.160156 48.332031 C 109.550781 49.539062 110.058594 50.699219 110.484375 51.894531 C 111.554688 54.910156 111.980469 58.238281 111.007812 61.34375 C 110.511719 62.929688 109.769531 64.402344 108.878906 65.800781 C 108.601562 66.238281 108.308594 66.667969 108.015625 67.09375 C 113.621094 66.746094 119.117188 60.359375 120.859375 51.683594 C 122.398438 44.015625 120.542969 36.867188 116.617188 33.589844 " fill-opacity="1" fill-rule="nonzero"/></g></g></g><g clip-path="url(#072e5744c6)"><g clip-path="url(#cd5aee4981)"><g clip-path="url(#7b32d5acb5)"><path fill="#88584e" d="M 134.789062 39.601562 C 136.785156 38.191406 137.882812 36.074219 138.839844 33.894531 C 139.652344 32.050781 140.597656 30.296875 142.113281 28.929688 C 144.917969 26.410156 148.648438 25.441406 152.347656 25.167969 C 149.140625 21.523438 141.824219 21.859375 135.457031 26.097656 C 129.820312 29.847656 126.71875 35.464844 127.554688 39.734375 C 127.789062 40.933594 128.992188 41.679688 130.183594 41.421875 C 131.804688 41.074219 133.378906 40.59375 134.789062 39.601562 " fill-opacity="1" fill-rule="nonzero"/></g></g></g><g clip-path="url(#e355f43d00)"><g clip-path="url(#4795ff0877)"><g clip-path="url(#d315064f85)"><path fill="#88584e" d="M 154.457031 29.699219 C 154.34375 28.484375 153.21875 27.625 152.007812 27.761719 C 150.289062 27.953125 148.597656 28.324219 146.992188 28.992188 C 146.78125 29.082031 146.574219 29.175781 146.371094 29.269531 C 146.335938 29.289062 146.1875 29.359375 146.15625 29.375 C 146.070312 29.421875 145.980469 29.46875 145.894531 29.515625 C 145.535156 29.714844 145.1875 29.925781 144.851562 30.160156 C 144.535156 30.375 144.238281 30.613281 143.945312 30.855469 C 143.945312 30.855469 143.945312 30.855469 143.945312 30.859375 C 143.917969 30.878906 143.894531 30.902344 143.871094 30.925781 C 143.804688 30.984375 143.742188 31.042969 143.679688 31.101562 C 143.574219 31.203125 143.46875 31.3125 143.363281 31.417969 C 142.617188 32.199219 142.101562 32.964844 141.621094 33.90625 C 141.152344 34.832031 140.773438 35.796875 140.328125 36.734375 C 139.203125 39.097656 137.523438 41.265625 135.171875 42.5 C 133.964844 43.128906 132.683594 43.550781 131.359375 43.847656 C 130.945312 43.9375 130.53125 44.019531 130.113281 44.09375 C 133.554688 47.132812 140.425781 46.617188 146.449219 42.609375 C 151.769531 39.066406 154.832031 33.863281 154.457031 29.699219 " fill-opacity="1" fill-rule="nonzero"/></g></g></g><g clip-path="url(#e3bfeadba3)"><g clip-path="url(#b26596dce4)"><g clip-path="url(#e2e251780d)"><path fill="#88584e" d="M 131.578125 62.488281 C 134.25 62.847656 136.726562 61.957031 139.136719 60.914062 C 141.175781 60.03125 143.257812 59.320312 145.507812 59.355469 C 149.664062 59.417969 153.410156 61.433594 156.609375 63.984375 C 156.746094 58.632812 150.578125 53.417969 142.25 52.066406 C 134.878906 50.875 128.15625 53.089844 125.628906 57.167969 C 124.921875 58.316406 125.332031 59.820312 126.488281 60.507812 C 128.0625 61.441406 129.695312 62.234375 131.578125 62.488281 " fill-opacity="1" fill-rule="nonzero"/></g></g></g><g clip-path="url(#4d469c1627)"><g clip-path="url(#653c874843)"><g clip-path="url(#3d0a335224)"><g clip-path="url(#a2f22d5d09)"><path fill="#88584e" d="M 154.914062 69.230469 C 155.734375 68.167969 155.46875 66.628906 154.386719 65.828125 C 152.855469 64.695312 151.207031 63.730469 149.40625 63.0625 C 149.171875 62.976562 148.933594 62.898438 148.695312 62.820312 C 148.65625 62.808594 148.480469 62.757812 148.445312 62.746094 C 148.335938 62.71875 148.230469 62.691406 148.125 62.664062 C 147.6875 62.554688 147.246094 62.464844 146.796875 62.398438 C 146.382812 62.339844 145.964844 62.308594 145.546875 62.285156 C 145.542969 62.285156 145.542969 62.285156 145.542969 62.285156 C 145.507812 62.285156 145.46875 62.285156 145.433594 62.28125 C 145.335938 62.28125 145.242188 62.28125 145.144531 62.285156 C 144.980469 62.289062 144.816406 62.292969 144.652344 62.304688 C 143.460938 62.375 142.476562 62.605469 141.375 63.011719 C 140.304688 63.40625 139.273438 63.902344 138.210938 64.324219 C 135.527344 65.394531 132.542969 65.890625 129.714844 65.121094 C 128.269531 64.726562 126.914062 64.105469 125.621094 63.351562 C 125.21875 63.117188 124.824219 62.867188 124.429688 62.617188 C 124.933594 67.65625 130.875 72.390625 138.753906 73.667969 C 145.714844 74.792969 152.09375 72.882812 154.914062 69.230469 " fill-opacity="1" fill-rule="nonzero"/></g></g></g></g><g fill="#322f30" fill-opacity="1"><g transform="translate(7.333308, 137.916244)"><g><path d="M 0.6875 -57.125 L 0.6875 -71.40625 L 50.90625 -71.40625 L 50.90625 -57.125 L 33.9375 -57.125 L 33.9375 0 L 17.65625 0 L 17.65625 -57.125 Z M 0.6875 -57.125 "/></g></g></g><g fill="#322f30" fill-opacity="1"><g transform="translate(51.559979, 137.916244)"><g><path d="M 10.390625 -58.6875 L 29.515625 -72.71875 L 48.640625 -58.6875 L 42.765625 -50.8125 L 29.515625 -60.5 L 16.28125 -50.8125 Z M 8.21875 -38.859375 C 4.0625 -34.304688 1.984375 -28.738281 1.984375 -22.15625 C 1.984375 -15.582031 4.0625 -10.03125 8.21875 -5.5 C 12.375 -0.96875 17.65625 1.296875 24.0625 1.296875 C 29.945312 1.296875 34.796875 -0.804688 38.609375 -5.015625 L 38.78125 -5.015625 L 38.78125 0 L 53.921875 0 L 53.921875 -44.40625 L 38.609375 -44.40625 L 38.609375 -40.171875 C 34.796875 -43.859375 29.945312 -45.703125 24.0625 -45.703125 C 17.65625 -45.703125 12.375 -43.421875 8.21875 -38.859375 Z M 21.125 -14.671875 C 19.21875 -16.609375 18.265625 -19.101562 18.265625 -22.15625 C 18.265625 -25.21875 19.257812 -27.726562 21.25 -29.6875 C 23.238281 -31.65625 25.707031 -32.640625 28.65625 -32.640625 C 31.539062 -32.640625 33.976562 -31.65625 35.96875 -29.6875 C 37.957031 -27.726562 38.953125 -25.21875 38.953125 -22.15625 C 38.953125 -19.15625 37.984375 -16.671875 36.046875 -14.703125 C 34.117188 -12.742188 31.65625 -11.765625 28.65625 -11.765625 C 25.539062 -11.765625 23.03125 -12.734375 21.125 -14.671875 Z M 21.125 -14.671875 "/></g></g></g><g fill="#322f30" fill-opacity="1"><g transform="translate(103.316581, 137.916244)"><g><path d="M 5.1875 0 L 5.1875 -44.40625 L 20.515625 -44.40625 L 20.515625 -39.734375 L 20.6875 -39.734375 C 24.664062 -43.710938 28.90625 -45.703125 33.40625 -45.703125 C 36.644531 -45.703125 39.675781 -45.035156 42.5 -43.703125 C 45.332031 -42.378906 47.46875 -40.332031 48.90625 -37.5625 C 53.40625 -42.988281 58.3125 -45.703125 63.625 -45.703125 C 68.351562 -45.703125 72.421875 -44.375 75.828125 -41.71875 C 79.234375 -39.0625 80.9375 -34.910156 80.9375 -29.265625 L 80.9375 0 L 65.609375 0 L 65.609375 -25.109375 C 65.609375 -27.472656 64.957031 -29.445312 63.65625 -31.03125 C 62.363281 -32.613281 60.421875 -33.40625 57.828125 -33.40625 C 55.578125 -33.40625 53.859375 -32.726562 52.671875 -31.375 C 51.492188 -30.019531 50.84375 -28.390625 50.71875 -26.484375 L 50.71875 0 L 35.40625 0 L 35.40625 -25.109375 C 35.40625 -27.472656 34.753906 -29.445312 33.453125 -31.03125 C 32.160156 -32.613281 30.210938 -33.40625 27.609375 -33.40625 C 25.242188 -33.40625 23.46875 -32.671875 22.28125 -31.203125 C 21.101562 -29.734375 20.515625 -27.988281 20.515625 -25.96875 L 20.515625 0 Z M 5.1875 0 "/></g></g></g><g fill="#322f30" fill-opacity="1"><g transform="translate(181.211602, 137.916244)"><g><path d="M 69.765625 -39.984375 L 69.765625 -24.5 C 67.921875 -16.007812 63.878906 -9.585938 57.640625 -5.234375 C 51.410156 -0.878906 44.457031 1.296875 36.78125 1.296875 C 27.144531 1.296875 18.9375 -2.304688 12.15625 -9.515625 C 5.375 -16.734375 1.984375 -25.445312 1.984375 -35.65625 C 1.984375 -46.050781 5.300781 -54.828125 11.9375 -61.984375 C 18.582031 -69.140625 26.863281 -72.71875 36.78125 -72.71875 C 48.382812 -72.71875 57.5625 -68.644531 64.3125 -60.5 L 53.671875 -48.828125 C 49.859375 -54.941406 44.546875 -58 37.734375 -58 C 32.710938 -58 28.425781 -55.816406 24.875 -51.453125 C 21.332031 -47.097656 19.5625 -41.832031 19.5625 -35.65625 C 19.5625 -29.601562 21.332031 -24.425781 24.875 -20.125 C 28.425781 -15.820312 32.710938 -13.671875 37.734375 -13.671875 C 41.890625 -13.671875 45.507812 -14.925781 48.59375 -17.4375 C 51.6875 -19.945312 53.234375 -23.28125 53.234375 -27.4375 L 36.78125 -27.4375 L 36.78125 -39.984375 Z M 69.765625 -39.984375 "/></g></g></g><g fill="#322f30" fill-opacity="1"><g transform="translate(245.60466, 137.916244)"><g><path d="M 6.65625 -69.15625 C 8.445312 -70.945312 10.582031 -71.84375 13.0625 -71.84375 C 15.550781 -71.84375 17.6875 -70.945312 19.46875 -69.15625 C 21.257812 -67.375 22.15625 -65.238281 22.15625 -62.75 C 22.15625 -60.269531 21.257812 -58.132812 19.46875 -56.34375 C 17.6875 -54.5625 15.550781 -53.671875 13.0625 -53.671875 C 10.582031 -53.671875 8.445312 -54.5625 6.65625 -56.34375 C 4.875 -58.132812 3.984375 -60.269531 3.984375 -62.75 C 3.984375 -65.238281 4.875 -67.375 6.65625 -69.15625 Z M 5.1875 -44.40625 L 5.1875 0 L 20.515625 0 L 20.515625 -44.40625 Z M 5.1875 -44.40625 "/></g></g></g><g fill="#322f30" fill-opacity="1"><g transform="translate(264.385312, 137.916244)"><g><path d="M 8.21875 -5.5 C 4.0625 -10.03125 1.984375 -15.582031 1.984375 -22.15625 C 1.984375 -28.738281 4.0625 -34.304688 8.21875 -38.859375 C 12.375 -43.421875 17.65625 -45.703125 24.0625 -45.703125 C 29.945312 -45.703125 34.796875 -43.859375 38.609375 -40.171875 L 38.609375 -44.40625 L 53.921875 -44.40625 L 53.921875 0 L 38.78125 0 L 38.78125 -5.015625 L 38.609375 -5.015625 C 34.796875 -0.804688 29.945312 1.296875 24.0625 1.296875 C 17.65625 1.296875 12.375 -0.96875 8.21875 -5.5 Z M 21.25 -29.6875 C 19.257812 -27.726562 18.265625 -25.21875 18.265625 -22.15625 C 18.265625 -19.101562 19.21875 -16.609375 21.125 -14.671875 C 23.03125 -12.734375 25.539062 -11.765625 28.65625 -11.765625 C 31.65625 -11.765625 34.117188 -12.742188 36.046875 -14.703125 C 37.984375 -16.671875 38.953125 -19.15625 38.953125 -22.15625 C 38.953125 -25.21875 37.957031 -27.726562 35.96875 -29.6875 C 33.976562 -31.65625 31.539062 -32.640625 28.65625 -32.640625 C 25.707031 -32.640625 23.238281 -31.65625 21.25 -29.6875 Z M 21.25 -29.6875 "/></g></g></g><g fill="#322f30" fill-opacity="1"><g transform="translate(316.141914, 137.916244)"><g><path d="M 9.390625 -5.28125 C 4.453125 -9.664062 1.984375 -15.289062 1.984375 -22.15625 C 1.984375 -29.019531 4.550781 -34.660156 9.6875 -39.078125 C 14.832031 -43.492188 21.179688 -45.703125 28.734375 -45.703125 C 36.179688 -45.703125 42.457031 -43.476562 47.5625 -39.03125 C 52.675781 -34.59375 55.234375 -28.96875 55.234375 -22.15625 C 55.234375 -15.351562 52.734375 -9.742188 47.734375 -5.328125 C 42.742188 -0.910156 36.410156 1.296875 28.734375 1.296875 C 20.773438 1.296875 14.328125 -0.894531 9.390625 -5.28125 Z M 21.25 -29.6875 C 19.257812 -27.726562 18.265625 -25.21875 18.265625 -22.15625 C 18.265625 -19.101562 19.21875 -16.609375 21.125 -14.671875 C 23.03125 -12.734375 25.539062 -11.765625 28.65625 -11.765625 C 31.65625 -11.765625 34.117188 -12.742188 36.046875 -14.703125 C 37.984375 -16.671875 38.953125 -19.15625 38.953125 -22.15625 C 38.953125 -25.21875 37.957031 -27.726562 35.96875 -29.6875 C 33.976562 -31.65625 31.539062 -32.640625 28.65625 -32.640625 C 25.707031 -32.640625 23.238281 -31.65625 21.25 -29.6875 Z M 21.25 -29.6875 "/></g></g></g><g fill="#322f30" fill-opacity="1"><g transform="translate(81.893174, 180.220098)"><g><path d="M 16.1875 0.515625 C 14.164062 0.515625 12.300781 0.160156 10.59375 -0.546875 C 8.894531 -1.253906 7.425781 -2.242188 6.1875 -3.515625 C 4.945312 -4.785156 3.984375 -6.289062 3.296875 -8.03125 C 2.617188 -9.769531 2.28125 -11.675781 2.28125 -13.75 C 2.28125 -15.820312 2.617188 -17.726562 3.296875 -19.46875 C 3.984375 -21.207031 4.945312 -22.710938 6.1875 -23.984375 C 7.425781 -25.253906 8.894531 -26.238281 10.59375 -26.9375 C 12.300781 -27.644531 14.164062 -28 16.1875 -28 C 18.351562 -28 20.347656 -27.597656 22.171875 -26.796875 C 23.992188 -26.003906 25.550781 -24.867188 26.84375 -23.390625 C 28.144531 -21.910156 29.097656 -20.160156 29.703125 -18.140625 L 26 -18.140625 C 25.289062 -20.140625 24.066406 -21.707031 22.328125 -22.84375 C 20.585938 -23.976562 18.578125 -24.546875 16.296875 -24.546875 C 14.253906 -24.546875 12.445312 -24.085938 10.875 -23.171875 C 9.3125 -22.253906 8.078125 -20.984375 7.171875 -19.359375 C 6.265625 -17.742188 5.8125 -15.875 5.8125 -13.75 C 5.8125 -11.625 6.265625 -9.75 7.171875 -8.125 C 8.078125 -6.507812 9.3125 -5.242188 10.875 -4.328125 C 12.445312 -3.410156 14.253906 -2.953125 16.296875 -2.953125 C 18.628906 -2.953125 20.695312 -3.550781 22.5 -4.75 C 24.3125 -5.957031 25.570312 -7.59375 26.28125 -9.65625 L 29.9375 -9.65625 C 29.382812 -7.613281 28.445312 -5.832031 27.125 -4.3125 C 25.800781 -2.800781 24.203125 -1.617188 22.328125 -0.765625 C 20.453125 0.0859375 18.40625 0.515625 16.1875 0.515625 Z M 16.1875 0.515625 "/></g></g></g><g fill="#322f30" fill-opacity="1"><g transform="translate(126.067054, 180.220098)"><g><path d="M 16.5 0.515625 C 13.71875 0.515625 11.253906 -0.09375 9.109375 -1.3125 C 6.960938 -2.53125 5.285156 -4.210938 4.078125 -6.359375 C 2.878906 -8.503906 2.28125 -10.96875 2.28125 -13.75 C 2.28125 -16.550781 2.878906 -19.019531 4.078125 -21.15625 C 5.285156 -23.289062 6.960938 -24.960938 9.109375 -26.171875 C 11.253906 -27.390625 13.71875 -28 16.5 -28 C 19.300781 -28 21.769531 -27.390625 23.90625 -26.171875 C 26.039062 -24.960938 27.710938 -23.289062 28.921875 -21.15625 C 30.140625 -19.019531 30.75 -16.550781 30.75 -13.75 C 30.75 -10.96875 30.140625 -8.503906 28.921875 -6.359375 C 27.710938 -4.210938 26.039062 -2.53125 23.90625 -1.3125 C 21.769531 -0.09375 19.300781 0.515625 16.5 0.515625 Z M 5.8125 -13.75 C 5.8125 -11.625 6.265625 -9.75 7.171875 -8.125 C 8.078125 -6.507812 9.332031 -5.242188 10.9375 -4.328125 C 12.550781 -3.410156 14.40625 -2.953125 16.5 -2.953125 C 18.625 -2.953125 20.484375 -3.410156 22.078125 -4.328125 C 23.671875 -5.242188 24.921875 -6.507812 25.828125 -8.125 C 26.734375 -9.75 27.1875 -11.625 27.1875 -13.75 C 27.1875 -15.894531 26.734375 -17.769531 25.828125 -19.375 C 24.921875 -20.988281 23.671875 -22.253906 22.078125 -23.171875 C 20.484375 -24.085938 18.625 -24.546875 16.5 -24.546875 C 14.40625 -24.546875 12.550781 -24.085938 10.9375 -23.171875 C 9.332031 -22.253906 8.078125 -20.988281 7.171875 -19.375 C 6.265625 -17.769531 5.8125 -15.894531 5.8125 -13.75 Z M 5.8125 -13.75 "/></g></g></g><g fill="#322f30" fill-opacity="1"><g transform="translate(171.183135, 180.220098)"><g><path d="M 4 0 L 4 -27.5 L 19.765625 -27.5 L 19.765625 -24.28125 L 7.46875 -24.28125 L 7.46875 -14.765625 L 18.734375 -14.765625 L 18.734375 -11.59375 L 7.46875 -11.59375 L 7.46875 0 Z M 4 0 "/></g></g></g><g fill="#322f30" fill-opacity="1"><g transform="translate(205.228532, 180.220098)"><g><path d="M 4 0 L 4 -27.5 L 19.765625 -27.5 L 19.765625 -24.28125 L 7.46875 -24.28125 L 7.46875 -14.765625 L 18.734375 -14.765625 L 18.734375 -11.59375 L 7.46875 -11.59375 L 7.46875 0 Z M 4 0 "/></g></g></g><g fill="#322f30" fill-opacity="1"><g transform="translate(239.273928, 180.220098)"><g><path d="M 4 0 L 4 -27.5 L 20.703125 -27.5 L 20.703125 -24.28125 L 7.46875 -24.28125 L 7.46875 -15.59375 L 19.71875 -15.59375 L 19.71875 -12.40625 L 7.46875 -12.40625 L 7.46875 -3.21875 L 21.140625 -3.21875 L 21.140625 0 Z M 4 0 "/></g></g></g><g fill="#322f30" fill-opacity="1"><g transform="translate(275.085925, 180.220098)"><g><path d="M 4 0 L 4 -27.5 L 20.703125 -27.5 L 20.703125 -24.28125 L 7.46875 -24.28125 L 7.46875 -15.59375 L 19.71875 -15.59375 L 19.71875 -12.40625 L 7.46875 -12.40625 L 7.46875 -3.21875 L 21.140625 -3.21875 L 21.140625 0 Z M 4 0 "/></g></g></g></svg>